<?xml version="1.0" encoding="UTF-8" standalone="no"?>
<!-- Created with Inkscape (http://www.inkscape.org/) -->

<svg
   width="142.18858mm"
   height="157.05211mm"
   viewBox="0 0 142.18858 157.05211"
   version="1.1"
   id="svg5"
   xml:space="preserve"
   inkscape:version="1.2.2 (732a01da63, 2022-12-09)"
   sodipodi:docname="hand_warn_by_jared_age_5.svg"
   xmlns:inkscape="http://www.inkscape.org/namespaces/inkscape"
   xmlns:sodipodi="http://sodipodi.sourceforge.net/DTD/sodipodi-0.dtd"
   xmlns="http://www.w3.org/2000/svg"
   xmlns:svg="http://www.w3.org/2000/svg"><sodipodi:namedview
     id="namedview7"
     pagecolor="#505050"
     bordercolor="#eeeeee"
     borderopacity="1"
     inkscape:showpageshadow="0"
     inkscape:pageopacity="0"
     inkscape:pagecheckerboard="0"
     inkscape:deskcolor="#505050"
     inkscape:document-units="mm"
     showgrid="false"
     inkscape:zoom="1.2544105"
     inkscape:cx="131.93449"
     inkscape:cy="293.76349"
     inkscape:window-width="1920"
     inkscape:window-height="1111"
     inkscape:window-x="-9"
     inkscape:window-y="-9"
     inkscape:window-maximized="1"
     inkscape:current-layer="layer2" /><defs
     id="defs2"><inkscape:path-effect
       effect="powermask"
       id="path-effect345"
       is_visible="true"
       lpeversion="1"
       uri="#mask-powermask-path-effect345"
       invert="false"
       hide_mask="false"
       background="true"
       background_color="#ffffffff" /><inkscape:path-effect
       effect="powermask"
       id="path-effect3387"
       is_visible="true"
       lpeversion="1"
       uri="#mask-powermask-path-effect3387"
       invert="false"
       hide_mask="false"
       background="true"
       background_color="#ffffffff" /><filter
       id="mask-powermask-path-effect3363_inverse"
       inkscape:label="filtermask-powermask-path-effect3363"
       style="color-interpolation-filters:sRGB"
       height="100"
       width="100"
       x="-50"
       y="-50"><feColorMatrix
         id="mask-powermask-path-effect3363_primitive1"
         values="1"
         type="saturate"
         result="fbSourceGraphic" /><feColorMatrix
         id="mask-powermask-path-effect3363_primitive2"
         values="-1 0 0 0 1 0 -1 0 0 1 0 0 -1 0 1 0 0 0 1 0 "
         in="fbSourceGraphic" /></filter><filter
       id="mask-powermask-path-effect381_inverse"
       inkscape:label="filtermask-powermask-path-effect381"
       style="color-interpolation-filters:sRGB"
       height="100"
       width="100"
       x="-50"
       y="-50"><feColorMatrix
         id="mask-powermask-path-effect381_primitive1"
         values="1"
         type="saturate"
         result="fbSourceGraphic" /><feColorMatrix
         id="mask-powermask-path-effect381_primitive2"
         values="-1 0 0 0 1 0 -1 0 0 1 0 0 -1 0 1 0 0 0 1 0 "
         in="fbSourceGraphic" /></filter></defs><g
     inkscape:label="Layer 1"
     inkscape:groupmode="layer"
     id="layer1"
     transform="translate(-40.938945,-71.405125)" /><g
     inkscape:groupmode="layer"
     id="layer2"
     inkscape:label="Reference"
     transform="translate(-40.938945,-71.405125)"><path
       id="path6296"
       mask="none"
       style="fill:#ffffff;stroke-width:0.353;stroke-dasharray:none;paint-order:stroke markers fill"
       d="M 102.14193 71.405125 C 99.144981 71.382115 96.329458 73.420947 96.370187 77.41251 C 96.449179 85.153723 97.476138 125.36066 97.555128 130.57412 C 97.634122 135.78761 95.580669 141.08015 93.447885 135.70869 C 91.315101 130.33724 83.099604 93.131933 83.020614 89.182334 C 82.941622 85.232734 71.0928 84.837665 71.803728 92.420896 C 72.514654 100.00413 76.78037 135.3925 78.676177 142.73875 C 80.571984 150.08502 76.859592 155.2984 71.093177 151.03282 C 65.326762 146.76727 54.18859 125.91349 51.739836 119.27817 C 49.291086 112.64285 38.074187 118.01416 41.628826 125.28142 C 45.183466 132.54869 61.456039 165.56734 61.456039 165.56734 C 61.456039 165.56734 61.06074 191.63506 72.277601 219.67721 C 72.988529 227.26044 124.8868 229.78795 129.38936 227.81315 C 133.89191 225.83835 145.26656 211.14591 146.53043 208.30219 C 147.79431 205.45849 152.1387 200.40327 154.74544 197.40157 C 157.35216 194.39986 159.2482 188.3965 161.14401 182.31412 C 163.03982 176.23173 173.15061 169.91189 176.62627 165.0144 C 180.10192 160.11688 185.39477 155.45637 182.0771 151.58576 C 178.75943 147.71514 174.96745 150.00615 167.7002 152.37589 C 160.43294 154.74566 157.43117 166.59447 148.03112 171.41297 C 138.63108 176.23149 138.39423 173.07192 135.86648 167.06854 C 133.33875 161.06514 134.04962 145.18762 133.57567 139.50019 C 133.10172 133.81278 140.52683 86.733357 139.57892 82.783758 C 138.63102 78.834159 130.179 77.886474 127.96722 83.020953 C 125.75546 88.155433 121.64789 127.0196 120.14703 132.39107 C 118.64618 137.76251 112.01087 137.68338 111.7739 133.33881 C 111.53692 128.99427 110.74689 84.758401 108.85108 77.017185 C 107.9328 73.267535 104.95724 71.42674 102.14193 71.405125 z M 106.41712 140.65154 C 112.01866 140.65154 116.52813 145.16153 116.52813 150.76307 L 116.52813 185.01783 C 116.52813 190.61937 112.01866 195.12884 106.41712 195.12884 C 100.81557 195.12884 96.306108 190.61937 96.306108 185.01783 L 96.306108 150.76307 C 96.306108 145.16153 100.81557 140.65154 106.41712 140.65154 z M 106.41712 200.84374 A 10.110994 10.110994 0 0 1 116.52813 210.95475 A 10.110994 10.110994 0 0 1 106.41712 221.06576 A 10.110994 10.110994 0 0 1 96.306108 210.95475 A 10.110994 10.110994 0 0 1 106.41712 200.84374 z " /></g></svg>
