<?xml version="1.0" encoding="UTF-8" standalone="no"?>
<!-- Created with Inkscape (http://www.inkscape.org/) -->

<svg
   width="143.1841mm"
   height="158.05208mm"
   viewBox="0 0 143.18409 158.05208"
   version="1.1"
   id="svg5"
   xml:space="preserve"
   inkscape:version="1.2.2 (732a01da63, 2022-12-09)"
   sodipodi:docname="hand_outline_by_jared_age_5.svg"
   xmlns:inkscape="http://www.inkscape.org/namespaces/inkscape"
   xmlns:sodipodi="http://sodipodi.sourceforge.net/DTD/sodipodi-0.dtd"
   xmlns="http://www.w3.org/2000/svg"
   xmlns:svg="http://www.w3.org/2000/svg"><sodipodi:namedview
     id="namedview7"
     pagecolor="#505050"
     bordercolor="#eeeeee"
     borderopacity="1"
     inkscape:showpageshadow="0"
     inkscape:pageopacity="0"
     inkscape:pagecheckerboard="0"
     inkscape:deskcolor="#505050"
     inkscape:document-units="mm"
     showgrid="false"
     inkscape:zoom="0.83737226"
     inkscape:cx="251.97873"
     inkscape:cy="321.84013"
     inkscape:window-width="1920"
     inkscape:window-height="1111"
     inkscape:window-x="-9"
     inkscape:window-y="-9"
     inkscape:window-maximized="1"
     inkscape:current-layer="layer2" /><defs
     id="defs2" /><g
     inkscape:label="Layer 1"
     inkscape:groupmode="layer"
     id="layer1"
     transform="translate(-40.442738,-70.905187)" /><g
     inkscape:groupmode="layer"
     id="layer2"
     inkscape:label="Reference"
     transform="translate(-40.442738,-70.905187)"><path
       style="fill:none;stroke:#ffffff;stroke-width:1;stroke-dasharray:none;stroke-opacity:1;paint-order:stroke markers fill"
       d="M 72.277813,219.67716 C 61.06093,191.63495 61.455889,165.56754 61.455889,165.56754 c 0,0 -16.27238,-33.01872 -19.827028,-40.28599 -3.554645,-7.26728 7.662238,-12.63875 10.110994,-6.00341 2.448758,6.63534 13.58665,27.48927 19.353077,31.75484 5.766427,4.26558 9.479058,-0.9479 7.583247,-8.29417 -1.895811,-7.34627 -6.161389,-42.73475 -6.872317,-50.317998 -0.71093,-7.583247 11.137892,-7.188285 11.216884,-3.238677 0.07899,3.949607 8.294176,41.154905 10.426964,46.526375 2.132788,5.37146 4.186584,0.079 4.10759,-5.13449 -0.07899,-5.21348 -1.105889,-45.420487 -1.184881,-53.161716 -0.07899,-7.741229 10.584951,-8.136191 12.480761,-0.394962 1.89581,7.741232 2.68573,51.976838 2.92271,56.321398 0.23697,4.34457 6.87231,4.42356 8.37316,-0.9479 1.50086,-5.37147 5.60845,-44.235604 7.82023,-49.370094 2.21178,-5.134489 10.66394,-4.186584 11.61184,-0.236977 0.94791,3.949607 -6.47735,51.028931 -6.0034,56.716361 0.47395,5.68743 -0.23698,21.56486 2.29077,27.56826 2.52775,6.0034 2.76473,9.16309 12.16479,4.34457 9.40007,-4.81852 12.40177,-16.66734 19.66905,-19.03711 7.26727,-2.36976 11.0589,-4.66054 14.37657,-0.78992 3.31767,3.87061 -1.97481,8.53115 -5.45046,13.42867 -3.47566,4.89751 -13.58665,11.21688 -15.48246,17.29927 -1.89581,6.0824 -3.79162,12.0858 -6.39836,15.08751 -2.60674,3.0017 -6.95131,8.05719 -8.21519,10.90091 -1.26387,2.84372 -12.63874,17.53626 -17.14129,19.51106 -4.50256,1.9748 -56.400397,-0.55294 -57.111327,-8.13619 z"
       id="path6296" /></g></svg>
